<?xml version="1.0" encoding="UTF-8" standalone="no"?>
<!DOCTYPE svg PUBLIC "-//W3C//DTD SVG 1.1//EN" "http://www.w3.org/Graphics/SVG/1.1/DTD/svg11.dtd">
<svg width="100%" height="100%" viewBox="0 0 54 54" version="1.1" xmlns="http://www.w3.org/2000/svg" xmlns:xlink="http://www.w3.org/1999/xlink" xml:space="preserve" xmlns:serif="http://www.serif.com/" style="fill-rule:evenodd;clip-rule:evenodd;stroke-linejoin:round;stroke-miterlimit:2;">
    <g>
        <path d="M24.138,5.009L30.511,5.009C30.951,5.009 31.309,4.562 31.309,4.009L31.309,1.444C31.309,0.339 30.595,0 29.714,0L24.935,0C24.055,0 23.341,0.34 23.341,1.444L23.341,4.008C23.342,4.561 23.698,5.009 24.138,5.009Z" style="fill:rgb(175,247,95);fill-rule:nonzero;"/>
        <path d="M33.308,3.102L33.308,4.008C33.308,5.662 32.053,7.008 30.51,7.008L24.137,7.008C22.595,7.008 21.34,5.662 21.34,4.008L21.34,3.102L7.325,3.102L7.325,39.498C7.325,41.707 9.116,43.498 11.325,43.498L22.236,43.498L14.713,50.363C13.897,51.108 13.839,52.373 14.584,53.189C14.979,53.621 15.52,53.838 16.062,53.838C16.543,53.838 17.026,53.665 17.41,53.317L25.325,46.093L25.325,52.649C25.325,53.753 26.221,54.649 27.325,54.649C28.429,54.649 29.325,53.753 29.325,52.649L29.325,45.776L37.546,53.319C38.363,54.064 39.628,54.003 40.37,53.183C41.113,52.369 41.054,51.101 40.236,50.36L32.751,43.498L43.325,43.498C45.534,43.498 47.325,41.707 47.325,39.498L47.325,4.102L47.325,3.102L33.308,3.102ZM43.325,39.499L11.325,39.499L11.325,13.006L43.325,13.006L43.325,39.499Z" style="fill:rgb(175,247,95);fill-rule:nonzero;"/>
    </g>
</svg>
