<?xml version="1.0" encoding="UTF-8" standalone="no"?>
<!DOCTYPE svg PUBLIC "-//W3C//DTD SVG 1.1//EN" "http://www.w3.org/Graphics/SVG/1.1/DTD/svg11.dtd">
<svg width="100%" height="100%" viewBox="0 0 49 49" version="1.1" xmlns="http://www.w3.org/2000/svg" xmlns:xlink="http://www.w3.org/1999/xlink" xml:space="preserve" xmlns:serif="http://www.serif.com/" style="fill-rule:evenodd;clip-rule:evenodd;stroke-linejoin:round;stroke-miterlimit:2;">
    <path d="M24.827,0C11.138,0 0,11.137 0,24.826C0,30.439 1.828,35.735 5.285,40.139C10.028,46.184 17.151,49.654 24.827,49.654C32.503,49.654 39.626,46.184 44.37,40.137C47.826,35.733 49.653,30.437 49.653,24.825C49.653,11.137 38.516,0 24.827,0ZM34.352,23.37C34.244,20.96 33.879,18.69 33.348,16.586C36.414,15.842 39.049,14.776 41.206,13.674C43.12,16.476 44.317,19.794 44.579,23.37L34.352,23.37ZM24.657,44.649C24.587,44.648 24.518,44.643 24.449,44.641C23.166,42.985 21.143,39.934 19.667,35.705C21.278,35.451 22.997,35.294 24.828,35.294C26.442,35.294 27.972,35.415 29.42,35.616C27.916,39.741 25.909,42.906 24.657,44.649ZM24.827,32.296C22.677,32.296 20.676,32.5 18.805,32.817C18.317,30.857 17.972,28.705 17.865,26.369L31.36,26.369C31.239,28.621 30.862,30.749 30.335,32.719C28.609,32.454 26.772,32.296 24.827,32.296ZM5.075,23.37C5.337,19.794 6.534,16.476 8.448,13.674C10.482,14.713 12.952,15.722 15.808,16.459C15.309,18.565 14.974,20.873 14.876,23.371L5.075,23.37ZM17.863,23.37C17.962,21.103 18.286,19.007 18.75,17.089C20.64,17.41 22.667,17.6 24.826,17.6C26.797,17.6 28.652,17.438 30.398,17.167C30.898,19.095 31.251,21.172 31.362,23.369L17.863,23.37ZM24.664,5.008C25.94,6.781 27.998,10.029 29.509,14.266C28.032,14.475 26.474,14.6 24.826,14.6C22.973,14.6 21.229,14.446 19.593,14.186C21.075,9.848 23.145,6.713 24.449,5.019C24.521,5.018 24.591,5.009 24.664,5.008ZM39.268,11.286C37.372,12.209 35.11,13.082 32.508,13.701C31.34,10.274 29.826,7.437 28.523,5.358C32.725,6.155 36.453,8.284 39.268,11.286ZM20.423,5.51C19.139,7.511 17.712,10.218 16.614,13.57C14.232,12.961 12.148,12.144 10.384,11.286C13.042,8.454 16.509,6.402 20.423,5.51ZM5.063,26.37L14.877,26.37C14.984,28.932 15.342,31.295 15.867,33.443C12.96,34.189 10.508,35.189 8.578,36.166C6.537,33.253 5.333,29.913 5.063,26.37ZM10.519,38.545C12.204,37.737 14.289,36.939 16.691,36.327C17.782,39.581 19.181,42.21 20.438,44.166C16.664,43.318 13.228,41.379 10.519,38.545ZM28.516,44.307C29.792,42.275 31.273,39.512 32.432,36.178C35.02,36.788 37.264,37.651 39.133,38.547C36.258,41.553 32.563,43.549 28.516,44.307ZM41.079,36.16C38.957,35.088 36.347,34.034 33.291,33.299C33.847,31.155 34.229,28.836 34.349,26.37L44.59,26.37C44.321,29.91 43.118,33.249 41.079,36.16Z" style="fill:rgb(148,122,255);fill-rule:nonzero;"/>
</svg>
