<?xml version="1.0" encoding="UTF-8" standalone="no"?>
<!DOCTYPE svg PUBLIC "-//W3C//DTD SVG 1.1//EN" "http://www.w3.org/Graphics/SVG/1.1/DTD/svg11.dtd">
<svg width="100%" height="100%" viewBox="0 0 53 53" version="1.1" xmlns="http://www.w3.org/2000/svg" xmlns:xlink="http://www.w3.org/1999/xlink" xml:space="preserve" xmlns:serif="http://www.serif.com/" style="fill-rule:evenodd;clip-rule:evenodd;stroke-linejoin:round;stroke-miterlimit:2;">
    <g>
        <path d="M5.881,40.27L47.824,40.27C49.482,40.27 50.82,38.928 50.82,37.274L50.82,7.313C50.82,5.107 49.033,3.319 46.828,3.319L6.879,3.319C4.673,3.319 2.886,5.107 2.886,7.313L2.886,37.273C2.886,38.928 4.228,40.27 5.881,40.27ZM7.886,8.319L45.82,8.319L45.82,35.269L7.886,35.269L7.886,8.319Z" style="fill:rgb(255,118,189);fill-rule:nonzero;"/>
        <path d="M52.707,42.105L1,42.105C0.447,42.105 0,42.552 0,43.105L0,46.806C0,48.785 2.009,50.386 4.486,50.386L49.221,50.386C51.699,50.386 53.706,48.782 53.706,46.806L53.706,43.105C53.707,42.553 53.259,42.105 52.707,42.105ZM33.091,47.247L20.614,47.247C20.062,47.247 19.614,46.801 19.614,46.247C19.614,45.693 20.062,45.247 20.614,45.247L33.091,45.247C33.645,45.247 34.091,45.693 34.091,46.247C34.091,46.8 33.645,47.247 33.091,47.247Z" style="fill:rgb(255,118,189);fill-rule:nonzero;"/>
    </g>
</svg>
